<svg width="187" height="271" viewBox="0 0 187 271" fill="none" xmlns="http://www.w3.org/2000/svg">
<path opacity="0.2" d="M60.3701 270.713C58.413 270.839 56.4446 270.923 54.4658 270.966L54.4335 269.469C53.4582 269.49 52.4803 269.5 51.4999 269.5L48.5224 269.5L48.5224 271L42.5663 271L42.5663 269.5L36.6103 269.5L36.6103 271L30.6542 271L30.6542 269.5L24.6982 269.5L24.6982 271L18.7431 271L18.7431 269.5L12.7871 269.5L12.7871 271L6.831 271L6.831 269.5L0.874941 269.5L0.874941 271L-5.08111 271L-5.08111 269.5L-11.0372 269.5L-11.0372 271L-16.9922 271L-16.9922 269.5L-22.9483 269.5L-22.9483 271L-28.9044 271L-28.9044 269.5L-34.8604 269.5L-34.8604 271L-40.8165 271L-40.8165 269.5L-46.7725 269.5L-46.7725 271L-52.7276 271L-52.7276 269.5L-58.6837 269.5L-58.6837 271L-64.6397 271L-64.6397 269.5L-70.5958 269.5L-70.5958 271L-76.5518 271L-76.5518 269.5L-82.5069 269.5L-82.5069 271L-88.4629 271L-88.4629 269.5L-94.419 269.5L-94.419 271L-100.375 271L-100.375 269.5L-106.331 269.5L-106.331 271L-112.287 271L-112.287 269.5L-118.242 269.5L-118.242 271L-124.198 271L-124.198 269.5L-130.154 269.5L-130.154 271L-136.11 271L-136.11 269.5L-142.066 269.5L-142.066 271L-148.023 271L-148.023 269.5L-149.5 269.5L-149.5 268.055L-151 268.055L-151 262.163L-149.5 262.163L-149.5 256.271L-151 256.271L-151 250.381L-149.5 250.381L-149.5 244.489L-151 244.489L-151 238.598L-149.5 238.598L-149.5 232.707L-151 232.707L-151 226.815L-149.5 226.815L-149.5 220.924L-151 220.924L-151 215.033L-149.5 215.033L-149.5 209.142L-151 209.142L-151 203.25L-149.5 203.25L-149.5 197.358L-151 197.358L-151 191.468L-149.5 191.468L-149.5 185.576L-151 185.576L-151 179.684L-149.5 179.684L-149.5 173.794L-151 173.794L-151 167.902L-149.5 167.902L-149.5 162.011L-151 162.011L-151 156.119L-149.5 156.119L-149.5 150.228L-151 150.228L-151 144.337L-149.5 144.337L-149.5 138.445L-151 138.445L-151 132.555L-149.5 132.555L-149.5 126.663L-151 126.663L-151 120.771L-149.5 120.771L-149.5 114.881L-151 114.881L-151 108.989L-149.5 108.989L-149.5 103.098L-151 103.098L-151 97.206L-149.5 97.206L-149.5 91.3154L-151 91.3154L-151 85.4238L-149.5 85.4238L-149.5 79.5322L-151 79.5322L-151 73.6415L-149.5 73.6415L-149.5 67.7499L-151 67.7499L-151 61.8583L-149.5 61.8583L-149.5 55.9677L-151 55.9677L-151 50.0761L-149.5 50.0761L-149.5 44.1845L-151 44.1845L-151 38.2939L-149.5 38.2939L-149.5 32.4023L-151 32.4023L-151 26.5107L-149.5 26.5107L-149.5 20.6191L-151 20.6191L-151 14.7284L-149.5 14.7284L-149.5 8.83684L-151 8.83684L-151 2.94524L-149.5 2.94524L-149.5 1.49993L-148.022 1.49993L-148.022 -7.32215e-05L-142.066 -7.19198e-05L-142.066 1.49993L-136.11 1.49993L-136.11 -7.0618e-05L-130.154 -6.93163e-05L-130.154 1.49993L-124.198 1.49993L-124.198 -6.80145e-05L-118.242 -6.67128e-05L-118.242 1.49993L-112.287 1.49993L-112.287 -6.54113e-05L-106.331 -6.41095e-05L-106.331 1.49994L-100.375 1.49994L-100.375 -6.28078e-05L-94.4189 -6.15061e-05L-94.4189 1.49994L-88.4629 1.49994L-88.4629 -6.02043e-05L-82.5068 -5.89026e-05L-82.5068 1.49994L-76.5518 1.49994L-76.5518 -5.76011e-05L-70.5957 -5.62993e-05L-70.5957 1.49994L-64.6396 1.49995L-64.6396 -5.49976e-05L-58.6836 -5.36959e-05L-58.6836 1.49995L-52.7275 1.49995L-52.7275 -5.23941e-05L-46.7725 -5.10926e-05L-46.7725 1.49995L-40.8164 1.49995L-40.8164 -4.97909e-05L-34.8604 -4.84891e-05L-34.8604 1.49995L-28.9043 1.49995L-28.9043 -4.71874e-05L-22.9482 -4.58857e-05L-22.9482 1.49995L-16.9922 1.49996L-16.9922 -4.45839e-05L-11.0371 -4.32824e-05L-11.0371 1.49996L-5.08106 1.49996L-5.08105 -4.19807e-05L0.875 -4.06789e-05L0.875 1.49996L6.83105 1.49996L6.83105 -3.93772e-05L12.7871 -3.80754e-05L12.7871 1.49996L18.7422 1.49996L18.7422 -3.67739e-05L24.6982 -3.54722e-05L24.6982 1.49996L30.6543 1.49997L30.6543 -3.41704e-05L36.6104 -3.28687e-05L36.6104 1.49997L42.5664 1.49997L42.5664 -3.1567e-05L48.5225 -3.02652e-05L48.5225 1.49997L51.5 1.49997C52.4804 1.49997 53.4583 1.51028 54.4336 1.53122L54.4658 0.0331742C56.445 0.0756765 58.4137 0.16058 60.3711 0.287082L60.2734 1.7822C62.226 1.90838 64.1679 2.07719 66.0967 2.28611L66.2578 0.796849C67.6617 0.948914 69.0595 1.11981 70.4502 1.31443L72.1172 1.55857L71.8916 3.04099C73.8262 3.33633 75.747 3.67362 77.6533 4.05076L77.9443 2.58103C79.8845 2.96486 81.8103 3.38778 83.7197 3.85349L83.3643 5.3115C85.2632 5.77467 87.1464 6.27814 89.0127 6.82127L89.4316 5.38279C91.3288 5.93492 93.2095 6.52533 95.0713 7.15721L94.5889 8.5781C96.4384 9.2058 98.2698 9.87281 100.082 10.5781L100.626 9.18162C102.466 9.89775 104.287 10.6521 106.087 11.4453L105.482 12.8174C107.268 13.6044 109.034 14.4292 110.778 15.291L111.443 13.9472C113.213 14.8214 114.959 15.7345 116.684 16.6826L115.962 17.9951C117.672 18.9351 119.359 19.9113 121.022 20.9228L121.802 19.6416C123.488 20.6667 125.149 21.7286 126.785 22.8242L125.951 24.0693C127.572 25.1546 129.168 26.2746 130.738 27.4277L131.626 26.2197C132.817 27.0948 133.995 27.9877 135.156 28.9004L136.314 29.8213L135.375 30.9902C136.895 32.2117 138.388 33.4656 139.853 34.751L140.841 33.625C142.322 34.9254 143.776 36.2572 145.199 37.6201L144.162 38.7031C145.57 40.0513 146.949 41.43 148.297 42.8379L149.38 41.8008C150.743 43.2241 152.075 44.6775 153.375 46.1592L152.249 47.1475C153.534 48.612 154.788 50.105 156.01 51.625L157.179 50.6855C158.413 52.2211 159.613 53.7846 160.78 55.374L159.572 56.2617C160.725 57.8317 161.845 59.4278 162.931 61.0488L164.176 60.2148C164.978 61.4124 165.762 62.6225 166.526 63.8467L167.358 65.1982L166.077 65.9775C167.089 67.6409 168.065 69.3282 169.005 71.0381L170.317 70.3164C171.265 72.0409 172.179 73.7874 173.053 75.5566L171.709 76.2217C172.571 77.9659 173.396 79.7315 174.183 81.5176L175.555 80.9131C176.348 82.7131 177.102 84.534 177.818 86.374L176.422 86.918C177.127 88.7302 177.794 90.5616 178.422 92.4111L179.843 91.9287C180.475 93.7905 181.065 95.6712 181.617 97.5684L180.179 97.9873C180.722 99.8536 181.225 101.737 181.688 103.636L183.146 103.28C183.612 105.19 184.035 107.115 184.419 109.056L182.949 109.347C183.326 111.253 183.664 113.174 183.959 115.108L185.441 114.883C185.738 116.823 185.99 118.776 186.203 120.742L184.714 120.903C184.923 122.832 185.092 124.774 185.218 126.727L186.714 126.63C186.84 128.587 186.924 130.555 186.967 132.534L185.469 132.566C185.49 133.542 185.5 134.52 185.5 135.5C185.5 136.48 185.49 137.458 185.469 138.434L186.967 138.465C186.924 140.444 186.839 142.413 186.713 144.37L185.218 144.274C185.092 146.227 184.923 148.168 184.714 150.097L186.203 150.257C185.99 152.223 185.737 154.176 185.441 156.116L183.959 155.892C183.664 157.826 183.326 159.747 182.949 161.653L184.419 161.943C184.035 163.884 183.612 165.809 183.146 167.719L181.688 167.364C181.225 169.263 180.722 171.146 180.179 173.013L181.617 173.431C181.065 175.328 180.475 177.208 179.843 179.07L178.422 178.589C177.794 180.438 177.127 182.27 176.422 184.082L177.818 184.625C177.102 186.465 176.348 188.286 175.555 190.086L174.183 189.482C173.396 191.268 172.571 193.034 171.709 194.778L173.053 195.442C172.179 197.212 171.265 198.958 170.317 200.683L169.005 199.962C168.065 201.672 167.089 203.359 166.077 205.022L167.358 205.801C166.333 207.487 165.271 209.148 164.176 210.784L162.931 209.951C161.845 211.572 160.725 213.168 159.572 214.738L160.78 215.625C159.613 217.214 158.413 218.778 157.179 220.313L157.179 220.314L156.01 219.375C154.788 220.895 153.534 222.388 152.249 223.853L153.375 224.84C152.075 226.322 150.743 227.775 149.38 229.198L148.297 228.163C146.949 229.571 145.57 230.949 144.162 232.297L145.199 233.379C143.776 234.742 142.322 236.074 140.841 237.374L139.852 236.249C138.388 237.534 136.895 238.788 135.375 240.01L136.314 241.178C134.779 242.412 133.215 243.612 131.626 244.779L130.738 243.572C129.168 244.725 127.572 245.845 125.951 246.931L126.785 248.175C125.149 249.27 123.488 250.332 121.802 251.357L121.802 251.358L121.022 250.077C119.359 251.089 117.672 252.065 115.962 253.005L116.684 254.316C114.959 255.264 113.213 256.178 111.443 257.052L110.778 255.709C109.034 256.571 107.268 257.396 105.482 258.183L106.087 259.554C104.287 260.347 102.466 261.101 100.626 261.817L100.082 260.422C98.2697 261.127 96.4383 261.794 94.5888 262.422L95.0712 263.842C93.2094 264.474 91.3288 265.064 89.4316 265.616L89.0126 264.179C87.1463 264.722 85.2632 265.225 83.3642 265.688L83.7197 267.145C81.8102 267.611 79.8845 268.034 77.9443 268.418L77.6533 266.949C75.7469 267.326 73.8261 267.664 71.8915 267.959L72.1171 269.44C70.1773 269.737 68.2237 269.989 66.2578 270.202L66.0966 268.715C64.1678 268.924 62.226 269.092 60.2734 269.218L60.3701 270.713Z" stroke="white" stroke-width="3" stroke-dasharray="6 6"/>
</svg>
